<svg version="1.1" xmlns="http://www.w3.org/2000/svg" viewBox="-876.7751373137447 -711.0664186913078 1753.5502746274901 1495.935989734398" fill="none" stroke="black" stroke-width="0.6%" vector-effect="non-scaling-stroke">
    <path d="M 698.64053 -558.7921 L 872.30521 68.86156 L 810.09168 64.17261 L 728.92468 -229.17869 L -22.42339 -285.80678 L 58.74361 7.54452 L -3.46992 2.85557 L -169.38821 -596.80128" />
    <path d="M -174.47756 -615.19505 L -177.13461 -624.79808 L -164.01047 -623.80894" />
    <path d="M -138.87235 -621.91431 L -114.92108 -620.10913 L -33.75408 -326.75783 L 717.59399 -270.12974 L 636.42699 -563.48105 L 698.64053 -558.7921 L 702.11045 -570.39046 L 875.77514 57.2632" />
    <path d="M 695.14156 -537.56698 L 691.86751 -549.39997 L 648.7966 -552.64616 L 652.07065 -540.81318 L 657.51095 -545.29027 L 693.76055 -542.55819" />
    <path d="M 652.07065 -540.81318 L 695.14156 -537.56698" />
    <path d="M -161.75466 -603.08331 L -161.49095 -602.13021 L -156.05065 -606.60731 L -119.80105 -603.87523" />
    <path d="M -161.49095 -602.13021 L -118.42004 -598.88402 L -121.6941 -610.717 L -149.89583 -612.84253" />
    <path d="M 872.30521 68.86156 L 875.77514 57.2632" />
    <path d="M 58.74361 7.54452 L 62.21353 -4.05384" />
    <path d="M -15.60208 -285.29266 L 62.21353 -4.05384" />
    <path d="M -177.13461 -624.79808 L -173.66469 -636.39645" />
    <path d="M -114.92108 -620.10913 L -111.45115 -631.7075 L -30.28416 -338.3562 L 714.2426 -282.24222" />
    <path d="M -111.45115 -631.7075 L -128.20095 -632.96991" />
    <path d="M -129.10331 -629.95374 L -128.20095 -632.96991" />
    <path d="M -150.80816 -634.67378 L -173.66469 -636.39645" />
    <path d="M -33.75408 -326.75783 L -30.28416 -338.3562" />
    <path d="M 636.42699 -563.48105 L 639.89692 -575.07941 L 702.11045 -570.39046" />
    <path d="M 655.61791 -552.13205 L 657.51095 -545.29027" />
    <path d="M -156.31436 -607.5604 L -156.05065 -606.60731" />
    <path d="M -44.83853 -699.29944 L -44.83853 -708.98435 L -740.00913 -136.8937 L -740.00913 -127.20879 L -657.15911 -195.39021" />
    <path d="M -125.67003 -632.77916 L -44.83853 -699.29944" />
    <path d="M -654.1158 -197.89471 L -129.10331 -629.95374" />
    <path d="M -656.64671 -198.08546 L -657.15911 -195.39021" />
    <path d="M -754.3661 -137.97577 L -754.3661 -128.29085 L -740.00913 -127.20879" />
    <path d="M -59.1955 -710.06642 L -754.3661 -137.97577 L -740.00913 -136.8937" />
    <path d="M -59.1955 -710.06642 L -44.83853 -708.98435" />
    <path d="M -702.11045 -201.512 L -679.25392 -199.78934" />
    <path d="M -656.64671 -198.08546 L -639.89692 -196.82305" />
    <path d="M -636.42699 -190.93584 L -639.89692 -196.82305" />
    <path d="M -721.06391 230.12101 L -639.89692 -196.82305" />
    <path d="M 30.28416 286.7491 L -721.06391 230.12101" />
    <path d="M 111.45115 -140.19496 L 30.28416 286.7491" />
    <path d="M 173.66469 -135.50601 L 111.45115 -140.19496" />
    <path d="M 0 777.98236 L 173.66469 -135.50601" />
    <path d="M -62.21353 773.29341 L 0 777.98236" />
    <path d="M 18.95346 346.34934 L -62.21353 773.29341" />
    <path d="M -732.39461 289.72125 L 18.95346 346.34934" />
    <path d="M -813.5616 716.66532 L -732.39461 289.72125" />
    <path d="M -875.77514 711.97637 L -813.5616 716.66532" />
    <path d="M -702.11045 -201.512 L -706.73788 -177.17141" />
    <path d="M -711.82723 -150.40109 L -875.77514 711.97637" />
    <path d="M -654.2369 -172.4609 L -657.51095 -155.23915 L -700.58186 -158.48535 L -700.31815 -159.87248" />
    <path d="M -682.43863 -174.58643 L -654.2369 -172.4609" />
    <path d="M 159.3247 -111.14386 L 156.05065 -93.92211 L 112.97974 -97.16831 L 116.2538 -114.39006 L 159.3247 -111.14386 Z" />
    <path d="M -872.30521 717.86358 L -810.09168 722.55253 L -813.5616 716.66532" />
    <path d="M -810.09168 722.55253 L -728.92468 295.60847 L -732.39461 289.72125" />
    <path d="M -728.92468 295.60847 L 17.89906 351.89557" />
    <path d="M -58.74361 779.18062 L 3.46992 783.86957 L 0 777.98236" />
    <path d="M 3.46992 783.86957 L 177.13461 -129.6188 L 173.66469 -135.50601" />
    <path d="M -716.53959 230.462 L -636.42699 -190.93584" />
    <path d="M -695.14156 -162.96244 L -694.87785 -164.34958" />
    <path d="M -656.59498 -160.05724 L -695.14156 -162.96244 L -700.58186 -158.48535" />
    <path d="M 156.96662 -98.7402 L 118.42004 -101.6454 L 112.97974 -97.16831" />
    <path d="M 118.42004 -101.6454 L 120.77812 -114.04907" />
    <path d="M -872.30521 717.86358 L -875.77514 711.97637" />
    <path d="M -58.74361 779.18062 L -62.21353 773.29341" />
</svg>