<svg version="1.1" xmlns="http://www.w3.org/2000/svg" viewBox="-876.7751373137448 -690.8830924181557 1753.5502746274901 1468.8201821205216" fill="none" stroke="black" stroke-width="0.6%" vector-effect="non-scaling-stroke">
    <path d="M 698.64053 -561.11357 L 872.30521 68.25256 L 810.09168 63.60508 L 728.92468 -230.5466 L 367.93105 -257.51358" />
    <path d="M 636.42699 -565.76105 L 698.64053 -561.11357 L 702.11045 -572.69177 L 875.77514 56.67436" />
    <path d="M 717.59399 -271.60938 L 656.52809 -492.91407" />
    <path d="M 643.82666 -538.94442 L 636.42699 -565.76105 L 639.89692 -577.33925 L 702.11045 -572.69177" />
    <path d="M -33.75408 -327.73665 L 349.76544 -299.08694" />
    <path d="M 413.09899 -294.35579 L 717.59399 -271.60938" />
    <path d="M 304.5975 -262.24472 L -22.42339 -286.67387 L 58.74361 7.4778 L -3.46992 2.83032 L -157.03352 -553.68882" />
    <path d="M -114.92108 -621.88832 L -33.75408 -327.73665 L -30.28416 -339.31485 L 363.06031 -309.9312" />
    <path d="M -177.13461 -626.53581 L -114.92108 -621.88832 L -111.45115 -633.46652 L -30.28416 -339.31485" />
    <path d="M -169.73494 -599.71918 L -177.13461 -626.53581 L -173.66469 -638.114 L -111.45115 -633.46652" />
    <path d="M 695.14156 -539.82219 L 687.96308 -540.35844" />
    <path d="M 692.87416 -522.56054 L 687.96308 -540.35844" />
    <path d="M 648.7966 -554.90495 L 651.47847 -545.18578" />
    <path d="M 648.7966 -554.90495 L 662.16929 -553.90599" />
    <path d="M 668.69502 -559.22885 L 683.05199 -558.15635 L 172.5303 -141.73815" />
    <path d="M 684.68902 -552.22371 L 683.05199 -558.15635" />
    <path d="M 684.68902 -552.22371 L 691.86751 -551.68747" />
    <path d="M 695.14156 -539.82219 L 691.86751 -551.68747" />
    <path d="M -164.765 -615.67971 L -151.39231 -614.68074" />
    <path d="M -164.765 -615.67971 L -162.08314 -605.96054" />
    <path d="M -144.86658 -620.0036 L -130.50961 -618.93111 L -641.0313 -202.5129" />
    <path d="M -128.87258 -612.99847 L -130.50961 -618.93111" />
    <path d="M -128.87258 -612.99847 L -121.6941 -612.46222" />
    <path d="M -120.68745 -583.33529 L -125.59853 -601.1332" />
    <path d="M -118.42004 -600.59695 L -121.6941 -612.46222" />
    <path d="M -118.42004 -600.59695 L -125.59853 -601.1332" />
    <path d="M 872.30521 68.25256 L 875.77514 56.67436" />
    <path d="M 426.39386 -305.20005 L 714.25888 -283.69593" />
    <path d="M 58.74361 7.4778 L 62.21353 -4.1004" />
    <path d="M -15.61835 -286.16552 L 62.21353 -4.1004" />
    <path d="M 693.40337 -544.79594 L 687.96308 -540.35844" />
    <path d="M 693.77682 -544.76804 L 693.40337 -544.79594" />
    <path d="M 153.78325 -126.4467 L 152.14622 -117.84351" />
    <path d="M 768.72307 -628.03584 L 700.97606 -572.77651" />
    <path d="M 768.72307 -584.42836 L 768.72307 -628.03584" />
    <path d="M 711.70511 -537.92042 L 768.72307 -584.42836" />
    <path d="M 169.51032 -95.66736 L 692.87416 -522.56054" />
    <path d="M 154.31247 -105.07463 L 148.87217 -100.63714 L 156.05065 -100.10089" />
    <path d="M 148.87217 -100.63714 L 143.96109 -74.82757" />
    <path d="M 73.55247 -17.39724 L 143.96109 -74.82757" />
    <path d="M 73.55247 -61.00471 L 73.55247 -17.39724" />
    <path d="M 153.78325 -126.4467 L 73.55247 -61.00471" />
    <path d="M 668.69502 -559.22885 L 158.17333 -142.81064" />
    <path d="M 754.3661 -629.10834 L 686.61909 -573.849" />
    <path d="M 59.1955 -62.07721 L 59.1955 -18.46973 L 73.55247 -17.39724" />
    <path d="M 139.42628 -127.5192 L 59.1955 -62.07721 L 73.55247 -61.00471" />
    <path d="M 655.60163 -554.3966 L 656.91877 -549.62328" />
    <path d="M -157.95997 -615.17136 L -156.64284 -610.39804" />
    <path d="M -144.86658 -620.0036 L -655.38827 -203.5854" />
    <path d="M -59.1955 -689.88309 L -126.94251 -634.62376" />
    <path d="M -754.3661 -122.85196 L -754.3661 -79.24449 L -740.00913 -78.17199 L -669.60052 -135.60232" />
    <path d="M -674.13532 -188.29396 L -754.3661 -122.85196 L -740.00913 -121.77947 L -740.00913 -78.17199" />
    <path d="M -659.77835 -187.22146 L -661.41538 -178.61827" />
    <path d="M -44.83853 -688.8106 L -112.58554 -633.55126" />
    <path d="M -44.83853 -645.20312 L -44.83853 -688.8106" />
    <path d="M -101.85649 -598.69517 L -44.83853 -645.20312" />
    <path d="M -120.15823 -605.5707 L -125.59853 -601.1332" />
    <path d="M -644.05128 -156.44212 L -120.68745 -583.33529" />
    <path d="M -659.24914 -165.84939 L -664.68944 -161.41189 L -657.51095 -160.87564" />
    <path d="M -664.68944 -161.41189 L -669.60052 -135.60232" />
    <path d="M -659.77835 -187.22146 L -740.00913 -121.77947" />
    <path d="M -119.78478 -605.5428 L -120.15823 -605.5707" />
    <path d="M -702.11045 -207.07564 L -711.4805 -157.83255" />
    <path d="M -724.18192 -91.08181 L -875.77514 705.59729 L -813.5616 710.24477 L -732.39461 283.68183 L 18.95346 339.8091 L -62.21353 766.37205 L 0 771.01953 L 173.66469 -141.6534 L 111.45115 -146.30089 L 102.08111 -97.05779" />
    <path d="M -639.89692 -202.42816 L -702.11045 -207.07564" />
    <path d="M -721.06391 224.13479 L -639.89692 -202.42816" />
    <path d="M 30.28416 280.26206 L -721.06391 224.13479" />
    <path d="M 89.37968 -30.30705 L 30.28416 280.26206" />
    <path d="M -654.2369 -178.08202 L -661.41538 -178.61827" />
    <path d="M -654.2369 -178.08202 L -657.51095 -160.87564" />
    <path d="M -659.77835 -187.22146 L -674.13532 -188.29396" />
    <path d="M -683.93511 -180.30054 L -697.30781 -181.29951" />
    <path d="M -699.98967 -167.20529 L -697.30781 -181.29951" />
    <path d="M 159.3247 -117.30727 L 152.14622 -117.84351" />
    <path d="M 153.78325 -126.4467 L 139.42628 -127.5192" />
    <path d="M 129.62649 -119.52579 L 116.2538 -120.52475" />
    <path d="M 113.57193 -106.43053 L 116.2538 -120.52475" />
    <path d="M 159.3247 -117.30727 L 156.05065 -100.10089" />
    <path d="M -872.30521 711.51485 L -810.09168 716.16233 L -813.5616 710.24477" />
    <path d="M -716.5324 224.4733 L -636.42699 -196.5106 L -639.89692 -202.42816" />
    <path d="M -810.09168 716.16233 L -728.92468 289.59939 L -732.39461 283.68183" />
    <path d="M -728.92468 289.59939 L 17.89187 345.38815" />
    <path d="M -58.74361 772.28961 L 3.46992 776.93709 L 0 771.01953" />
    <path d="M 3.46992 776.93709 L 177.13461 -135.73585 L 173.66469 -141.6534" />
    <path d="M -694.54937 -171.64279 L -692.77629 -180.961" />
    <path d="M -659.24914 -165.84939 L -656.60216 -165.65166" />
    <path d="M 119.01223 -110.86803 L 120.78531 -120.18624" />
    <path d="M 154.31247 -105.07463 L 156.95944 -104.8769" />
    <path d="M 754.3661 -629.10834 L 768.72307 -628.03584" />
    <path d="M -59.1955 -689.88309 L -44.83853 -688.8106" />
    <path d="M -872.30521 711.51485 L -875.77514 705.59729" />
    <path d="M -58.74361 772.28961 L -62.21353 766.37205" />
</svg>