<svg version="1.1" xmlns="http://www.w3.org/2000/svg" viewBox="-876.7751373137448 -698.151004946272 1753.5502746274901 1476.088094648638" fill="none" stroke="black" stroke-width="0.6%" vector-effect="non-scaling-stroke">
    <path d="M -114.92108 -621.88832 L -33.75408 -327.73665 L 341.60267 -299.69672" />
    <path d="M -114.92108 -621.88832 L -131.67087 -623.13957 L -130.83304 -625.93521 L -649.19407 -203.12268" />
    <path d="M -128.87258 -612.99847 L -131.67087 -623.13957" />
    <path d="M -128.87258 -612.99847 L -121.6941 -612.46222" />
    <path d="M -118.42004 -600.59695 L -121.6941 -612.46222" />
    <path d="M -118.42004 -600.59695 L -125.59853 -601.1332" />
    <path d="M -122.32447 -589.26793 L -125.59853 -601.1332" />
    <path d="M -164.765 -615.67971 L -163.72016 -611.89317" />
    <path d="M -164.765 -615.67971 L -159.55508 -615.29052" />
    <path d="M -148.40015 -624.38928 L -177.13461 -626.53581 L -173.66469 -638.114 L -111.45115 -633.46652 L -30.28416 -339.31485 L 354.89755 -310.54097" />
    <path d="M -3.46992 2.83032 L -158.67054 -559.62146" />
    <path d="M -171.37197 -605.65181 L -177.13461 -626.53581" />
    <path d="M 58.74361 7.4778 L -3.46992 2.83032" />
    <path d="M -22.42339 -286.67387 L 58.74361 7.4778 L 62.21353 -4.1004" />
    <path d="M 728.92468 -230.5466 L 359.76829 -258.12335" />
    <path d="M 296.43474 -262.8545 L -22.42339 -286.67387" />
    <path d="M 810.09168 63.60508 L 728.92468 -230.5466" />
    <path d="M 872.30521 68.25256 L 810.09168 63.60508" />
    <path d="M 698.64053 -561.11357 L 872.30521 68.25256 L 875.77514 56.67436" />
    <path d="M 698.64053 -561.11357 L 681.89073 -562.36481 L 682.72857 -565.16045 L 164.36753 -142.34792" />
    <path d="M 684.68902 -552.22371 L 681.89073 -562.36481" />
    <path d="M 684.68902 -552.22371 L 691.86751 -551.68747" />
    <path d="M 695.14156 -539.82219 L 691.86751 -551.68747" />
    <path d="M 695.14156 -539.82219 L 687.96308 -540.35844" />
    <path d="M 691.23713 -528.49317 L 687.96308 -540.35844" />
    <path d="M 648.7966 -554.90495 L 649.84144 -551.11842" />
    <path d="M 648.7966 -554.90495 L 654.00652 -554.51576" />
    <path d="M 665.16146 -563.61453 L 636.42699 -565.76105 L 639.89692 -577.33925 L 702.11045 -572.69177 L 875.77514 56.67436" />
    <path d="M 717.59399 -271.60938 L 654.89106 -498.8467" />
    <path d="M 642.18963 -544.87706 L 636.42699 -565.76105" />
    <path d="M 404.93623 -294.96557 L 717.59399 -271.60938" />
    <path d="M -33.75408 -327.73665 L -30.28416 -339.31485" />
    <path d="M -114.92108 -621.88832 L -111.45115 -633.46652" />
    <path d="M -145.19001 -627.0077 L -130.83304 -625.93521" />
    <path d="M -658.14133 -195.82465 L -661.41538 -178.61827" />
    <path d="M -44.83853 -696.07851 L -120.7483 -634.16104" />
    <path d="M -44.83853 -652.47103 L -44.83853 -696.07851" />
    <path d="M -103.49352 -604.62781 L -44.83853 -652.47103" />
    <path d="M -120.15823 -605.5707 L -125.59853 -601.1332" />
    <path d="M -642.41425 -165.04531 L -122.32447 -589.26793" />
    <path d="M -659.24914 -165.84939 L -664.68944 -161.41189 L -657.51095 -160.87564" />
    <path d="M -664.68944 -161.41189 L -667.96349 -144.20551" />
    <path d="M -740.00913 -85.43991 L -667.96349 -144.20551" />
    <path d="M -740.00913 -129.04738 L -740.00913 -85.43991" />
    <path d="M -658.14133 -195.82465 L -740.00913 -129.04738" />
    <path d="M -119.78478 -605.5428 L -120.15823 -605.5707" />
    <path d="M -145.19001 -627.0077 L -663.55104 -204.19517" />
    <path d="M -59.1955 -697.151 L -135.10527 -635.23354" />
    <path d="M -754.3661 -130.11988 L -754.3661 -86.5124 L -740.00913 -85.43991" />
    <path d="M -672.4983 -196.89714 L -754.3661 -130.11988 L -740.00913 -129.04738" />
    <path d="M -15.61835 -286.16552 L 62.21353 -4.1004" />
    <path d="M 698.64053 -561.11357 L 702.11045 -572.69177" />
    <path d="M 668.3716 -566.23295 L 682.72857 -565.16045" />
    <path d="M 155.42027 -135.04989 L 152.14622 -117.84351" />
    <path d="M 768.72307 -635.30375 L 692.8133 -573.38628" />
    <path d="M 768.72307 -591.69628 L 768.72307 -635.30375" />
    <path d="M 710.06809 -543.85305 L 768.72307 -591.69628" />
    <path d="M 693.40337 -544.79594 L 687.96308 -540.35844" />
    <path d="M 171.14735 -104.27055 L 691.23713 -528.49317" />
    <path d="M 154.31247 -105.07463 L 148.87217 -100.63714 L 156.05065 -100.10089" />
    <path d="M 148.87217 -100.63714 L 145.59811 -83.43076" />
    <path d="M 73.55247 -24.66515 L 145.59811 -83.43076" />
    <path d="M 73.55247 -68.27263 L 73.55247 -24.66515" />
    <path d="M 155.42027 -135.04989 L 73.55247 -68.27263" />
    <path d="M 693.77682 -544.76804 L 693.40337 -544.79594" />
    <path d="M 668.3716 -566.23295 L 150.01056 -143.42042" />
    <path d="M 754.3661 -636.37625 L 678.45633 -574.45878" />
    <path d="M 59.1955 -69.34512 L 59.1955 -25.73765 L 73.55247 -24.66515" />
    <path d="M 141.0633 -136.12239 L 59.1955 -69.34512 L 73.55247 -68.27263" />
    <path d="M 418.2311 -305.80982 L 714.25888 -283.69593" />
    <path d="M -702.11045 -207.07564 L -709.84347 -166.43574" />
    <path d="M -722.54489 -99.685 L -875.77514 705.59729 L -813.5616 710.24477 L -732.39461 283.68183 L 18.95346 339.8091 L -62.21353 766.37205 L 0 771.01953 L 173.66469 -141.6534 L 111.45115 -146.30089 L 103.71813 -105.66098" />
    <path d="M -639.89692 -202.42816 L -702.11045 -207.07564" />
    <path d="M -721.06391 224.13479 L -639.89692 -202.42816" />
    <path d="M 30.28416 280.26206 L -721.06391 224.13479" />
    <path d="M 91.01671 -38.91024 L 30.28416 280.26206" />
    <path d="M -654.2369 -178.08202 L -661.41538 -178.61827" />
    <path d="M -654.2369 -178.08202 L -657.51095 -160.87564" />
    <path d="M -658.14133 -195.82465 L -672.4983 -196.89714" />
    <path d="M -692.09788 -180.91032 L -697.30781 -181.29951" />
    <path d="M -698.35265 -175.80848 L -697.30781 -181.29951" />
    <path d="M 159.3247 -117.30727 L 152.14622 -117.84351" />
    <path d="M 155.42027 -135.04989 L 141.0633 -136.12239" />
    <path d="M 121.46372 -120.13556 L 116.2538 -120.52475" />
    <path d="M 115.20896 -115.03372 L 116.2538 -120.52475" />
    <path d="M 159.3247 -117.30727 L 156.05065 -100.10089" />
    <path d="M -692.91235 -180.24598 L -692.77629 -180.961" />
    <path d="M -659.24914 -165.84939 L -656.60216 -165.65166" />
    <path d="M -716.5324 224.4733 L -636.42699 -196.5106 L -639.89692 -202.42816" />
    <path d="M 120.64925 -119.47122 L 120.78531 -120.18624" />
    <path d="M 154.31247 -105.07463 L 156.95944 -104.8769" />
    <path d="M 3.46992 776.93709 L 177.13461 -135.73585 L 173.66469 -141.6534" />
    <path d="M -58.74361 772.28961 L 3.46992 776.93709 L 0 771.01953" />
    <path d="M -728.92468 289.59939 L 17.89187 345.38815" />
    <path d="M -810.09168 716.16233 L -728.92468 289.59939 L -732.39461 283.68183" />
    <path d="M -872.30521 711.51485 L -810.09168 716.16233 L -813.5616 710.24477" />
    <path d="M -59.1955 -697.151 L -44.83853 -696.07851" />
    <path d="M 754.3661 -636.37625 L 768.72307 -635.30375" />
    <path d="M -872.30521 711.51485 L -875.77514 705.59729" />
    <path d="M -58.74361 772.28961 L -62.21353 766.37205" />
</svg>