<svg version="1.1" xmlns="http://www.w3.org/2000/svg" viewBox="-891.2106596018953 -723.8103355474475 1782.421319203791 1528.0488959942695" fill="none" stroke="black" stroke-width="0.6%" vector-effect="non-scaling-stroke">
    <path d="M -810.73689 -128.50512 L -810.73689 -143.0169 L 96.18013 -71.44093 L 810.73689 -651.23437 L -96.18013 -722.81033 L -810.73689 -143.0169" />
    <path d="M 96.18013 -56.92916 L 96.18013 -71.44093" />
    <path d="M 55.60753 -60.13124 L 96.18013 -56.92916 L 810.73689 -636.7226 L 810.73689 -651.23437" />
    <path d="M 55.60753 -60.13124 L 55.60753 -16.59593 L 129.6623 -76.68419" />
    <path d="M 41.28779 -17.72608 L 55.60753 -16.59593" />
    <path d="M 41.28779 -61.26139 L 41.28779 -17.72608" />
    <path d="M -755.84454 -124.1729 L 41.28779 -61.26139" />
    <path d="M -755.84454 -124.1729 L -755.84454 -80.63758 L -706.94633 -120.31374" />
    <path d="M -770.16429 -81.76773 L -755.84454 -80.63758" />
    <path d="M -770.16429 -125.30304 L -770.16429 -81.76773" />
    <path d="M -810.73689 -128.50512 L -770.16429 -125.30304" />
    <path d="M -706.26794 -213.97164 L -711.71001 -209.55593 L -647.27117 -204.47027 L -637.89262 -212.08006 L -640.89337 -212.31688" />
    <path d="M 105.18414 -149.92999 L 99.74206 -145.51428 L 164.1809 -140.42862 L 173.55946 -148.03841 L 170.55871 -148.27523" />
    <path d="M -170.78201 -648.46649 L -173.55946 -646.21286 L -109.12062 -641.1272 L -99.74206 -648.73699 L -105.97915 -649.22924" />
    <path d="M 640.67007 -584.42484 L 637.89262 -582.17121 L 702.33146 -577.08555 L 711.71001 -584.69534 L 705.47293 -585.18758" />
    <path d="M 770.16429 -596.38937 L 770.16429 -603.80187" />
    <path d="M 131.3813 -85.49149 L 129.6623 -76.68419" />
    <path d="M 164.04824 -104.58504 L 690.5175 -531.76374 L 688.7985 -537.78144" />
    <path d="M 715.04806 -551.6679 L 770.16429 -596.38937" />
    <path d="M -704.98377 -220.5511 L -707.19928 -209.19993" />
    <path d="M -727.86005 -103.34428 L -890.21066 728.46023 L -828.15844 733.35753 L -741.36833 288.68777 L 8.03152 347.83212 L -78.75858 792.50188 L -16.70637 797.39918 L 160.17523 -108.85497" />
    <path d="M -642.93155 -215.6538 L -704.98377 -220.5511" />
    <path d="M -729.72166 229.01596 L -662.22874 -116.78452" />
    <path d="M -644.70849 -206.54964 L -642.93155 -215.6538" />
    <path d="M 19.6782 288.16031 L -729.72166 229.01596" />
    <path d="M 106.46831 -156.50945 L 104.2528 -145.15828" />
    <path d="M 83.59202 -39.30263 L 19.6782 288.16031" />
    <path d="M 168.52052 -151.61214 L 106.46831 -156.50945" />
    <path d="M 166.74358 -142.50799 L 168.52052 -151.61214" />
    <path d="M -886.64397 734.29961 L -824.59175 739.19691 L -828.15844 733.35753" />
    <path d="M -725.08664 229.38177 L -657.59372 -116.41872" />
    <path d="M -824.59175 739.19691 L -737.80164 294.52715 L -741.36833 288.68777" />
    <path d="M -737.80164 294.52715 L 6.9632 353.30569" />
    <path d="M -75.19189 798.34126 L -13.13968 803.23856 L -16.70637 797.39918" />
    <path d="M -13.13968 803.23856 L 165.76724 -113.39234" />
    <path d="M 707.73705 -553.14823 L 886.64397 73.15148 L 890.21066 61.52406" />
    <path d="M 886.64397 73.15148 L 824.59175 68.25418 L 737.80164 -235.57208 L 362.03092 -265.22877" />
    <path d="M 726.15497 -276.34361 L 660.21583 -507.17687" />
    <path d="M 406.79248 -301.54842 L 726.15497 -276.34361" />
    <path d="M 65.54543 -24.65957 L 74.56872 6.9283" />
    <path d="M 74.15885 9.0283 L 13.13968 4.21253 L -6.64402 -65.04428" />
    <path d="M 704.98377 -586.89999 L 706.76071 -580.67946" />
    <path d="M 713.32906 -557.68561 L 890.21066 61.52406" />
    <path d="M 642.93155 -591.79729 L 704.98377 -586.89999" />
    <path d="M 420.1684 -312.40168 L 722.67464 -288.5272" />
    <path d="M -106.46831 -650.94164 L -104.69137 -644.72111" />
    <path d="M 71.13744 -29.19694 L 77.36473 -7.39706" />
    <path d="M -168.52052 -655.83894 L -106.46831 -650.94164" />
    <path d="M -886.64397 734.29961 L -890.21066 728.46023" />
    <path d="M -639.80228 -210.53055 L -642.93155 -215.6538" />
    <path d="M -75.19189 798.34126 L -78.75858 792.50188" />
    <path d="M 171.6498 -146.4889 L 168.52052 -151.61214" />
    <path d="M 701.98168 -577.11316 L 704.98377 -586.89999" />
    <path d="M 639.92946 -582.01046 L 642.93155 -591.79729" />
    <path d="M -109.4704 -641.15481 L -106.46831 -650.94164" />
    <path d="M -171.52262 -646.05211 L -168.52052 -655.83894" />
</svg>