<svg version="1.1" xmlns="http://www.w3.org/2000/svg" viewBox="-876.7751373137448 -695.2438399350256 1753.5502746274901 1473.1809296373915" fill="none" stroke="black" stroke-width="0.6%" vector-effect="non-scaling-stroke">
    <path d="M 698.64053 -561.11357 L 872.30521 68.25256 L 810.09168 63.60508 L 728.92468 -230.5466 L -22.42339 -286.67387 L 58.74361 7.4778 L -3.46992 2.83032 L -159.98016 -564.36757" />
    <path d="M 636.42699 -565.76105 L 698.64053 -561.11357 L 702.11045 -572.69177 L 875.77514 56.67436" />
    <path d="M 717.59399 -271.60938 L 636.42699 -565.76105 L 639.89692 -577.33925 L 702.11045 -572.69177" />
    <path d="M -33.75408 -327.73665 L 717.59399 -271.60938" />
    <path d="M -114.92108 -621.88832 L -33.75408 -327.73665 L -30.28416 -339.31485 L 714.25888 -283.69593" />
    <path d="M -177.13461 -626.53581 L -114.92108 -621.88832 L -111.45115 -633.46652 L -30.28416 -339.31485" />
    <path d="M -170.71716 -603.27876 L -177.13461 -626.53581 L -173.66469 -638.114 L -111.45115 -633.46652" />
    <path d="M 695.14156 -539.82219 L 691.86751 -551.68747 L 648.7966 -554.90495 L 652.07065 -543.03968 L 657.51095 -547.47718 L 693.77682 -544.76804" />
    <path d="M 652.07065 -543.03968 L 695.14156 -539.82219" />
    <path d="M -164.765 -615.67971 L -156.28997 -615.04661" />
    <path d="M -145.84879 -623.56318 L -131.49182 -622.49069 L -645.92896 -202.87877" />
    <path d="M -128.87258 -612.99847 L -131.49182 -622.49069" />
    <path d="M -128.87258 -612.99847 L -121.6941 -612.46222" />
    <path d="M -118.42004 -600.59695 L -121.6941 -612.46222" />
    <path d="M -118.42004 -600.59695 L -125.59853 -601.1332" />
    <path d="M -123.63409 -594.01404 L -125.59853 -601.1332" />
    <path d="M -164.765 -615.67971 L -163.06535 -609.52012" />
    <path d="M 872.30521 68.25256 L 875.77514 56.67436" />
    <path d="M 58.74361 7.4778 L 62.21353 -4.1004" />
    <path d="M -15.61835 -286.16552 L 62.21353 -4.1004" />
    <path d="M 655.60163 -554.3966 L 657.51095 -547.47718" />
    <path d="M -145.84879 -623.56318 L -660.28593 -203.95126" />
    <path d="M -59.1955 -694.24384 L -131.84017 -634.98962" />
    <path d="M -754.3661 -127.21271 L -754.3661 -92.32673 L -740.00913 -91.25424 L -666.65387 -151.08806" />
    <path d="M -673.15311 -193.45587 L -754.3661 -127.21271 L -740.00913 -126.14022 L -740.00913 -91.25424" />
    <path d="M -658.79614 -192.38337 L -661.41538 -178.61827" />
    <path d="M -44.83853 -693.17134 L -117.4832 -633.91713" />
    <path d="M -44.83853 -658.28536 L -44.83853 -693.17134" />
    <path d="M -104.80314 -609.37392 L -44.83853 -658.28536" />
    <path d="M -120.15823 -605.5707 L -125.59853 -601.1332" />
    <path d="M -641.10463 -171.92786 L -123.63409 -594.01404" />
    <path d="M -659.24914 -165.84939 L -664.68944 -161.41189 L -657.51095 -160.87564" />
    <path d="M -664.68944 -161.41189 L -666.65387 -151.08806" />
    <path d="M -658.79614 -192.38337 L -740.00913 -126.14022" />
    <path d="M -119.78478 -605.5428 L -120.15823 -605.5707" />
    <path d="M -157.95997 -615.17136 L -157.62505 -613.95762" />
    <path d="M -702.11045 -207.07564 L -710.49828 -162.99446" />
    <path d="M -721.23527 -106.56755 L -875.77514 705.59729 L -813.5616 710.24477 L -732.39461 283.68183 L 18.95346 339.8091 L -62.21353 766.37205 L 0 771.01953 L 173.66469 -141.6534 L 111.45115 -146.30089 L 30.28416 280.26206 L -721.06391 224.13479 L -639.89692 -202.42816 L -702.11045 -207.07564" />
    <path d="M -654.2369 -178.08202 L -661.41538 -178.61827" />
    <path d="M -658.79614 -192.38337 L -673.15311 -193.45587" />
    <path d="M -688.83277 -180.66641 L -697.30781 -181.29951" />
    <path d="M -699.00746 -172.3672 L -697.30781 -181.29951" />
    <path d="M -654.2369 -178.08202 L -657.51095 -160.87564" />
    <path d="M 159.3247 -117.30727 L 156.05065 -100.10089 L 112.97974 -103.31837 L 116.2538 -120.52475 L 159.3247 -117.30727 Z" />
    <path d="M -872.30521 711.51485 L -810.09168 716.16233 L -813.5616 710.24477" />
    <path d="M -716.5324 224.4733 L -636.42699 -196.5106 L -639.89692 -202.42816" />
    <path d="M -810.09168 716.16233 L -728.92468 289.59939 L -732.39461 283.68183" />
    <path d="M -728.92468 289.59939 L 17.89187 345.38815" />
    <path d="M -58.74361 772.28961 L 3.46992 776.93709 L 0 771.01953" />
    <path d="M 3.46992 776.93709 L 177.13461 -135.73585 L 173.66469 -141.6534" />
    <path d="M -659.24914 -165.84939 L -656.60216 -165.65166" />
    <path d="M -693.56716 -176.8047 L -692.77629 -180.961" />
    <path d="M 156.95944 -104.8769 L 118.42004 -107.75587 L 112.97974 -103.31837" />
    <path d="M 118.42004 -107.75587 L 120.78531 -120.18624" />
    <path d="M -59.1955 -694.24384 L -44.83853 -693.17134" />
    <path d="M -872.30521 711.51485 L -875.77514 705.59729" />
    <path d="M -58.74361 772.28961 L -62.21353 766.37205" />
</svg>