<svg version="1.1" xmlns="http://www.w3.org/2000/svg" viewBox="-876.7751373137448 -683.6151798900394 1753.5502746274901 1461.5522695924053" fill="none" stroke="black" stroke-width="0.6%" vector-effect="non-scaling-stroke">
    <path d="M 698.64053 -561.11357 L 872.30521 68.25256 L 810.09168 63.60508 L 728.92468 -230.5466 L 376.09382 -256.9038" />
    <path d="M 636.42699 -565.76105 L 698.64053 -561.11357 L 702.11045 -572.69177 L 875.77514 56.67436" />
    <path d="M 717.59399 -271.60938 L 658.16511 -486.98143" />
    <path d="M 645.46369 -533.01178 L 636.42699 -565.76105 L 639.89692 -577.33925 L 702.11045 -572.69177" />
    <path d="M -33.75408 -327.73665 L 357.9282 -298.47717" />
    <path d="M 421.26175 -293.74602 L 717.59399 -271.60938" />
    <path d="M 312.76026 -261.63495 L -22.42339 -286.67387 L 58.74361 7.4778 L -3.46992 2.83032 L -155.39649 -547.75619" />
    <path d="M -114.92108 -621.88832 L -33.75408 -327.73665 L -30.28416 -339.31485 L 371.22307 -309.32142" />
    <path d="M -177.13461 -626.53581 L -114.92108 -621.88832 L -111.45115 -633.46652 L -30.28416 -339.31485" />
    <path d="M -168.09791 -593.78654 L -177.13461 -626.53581 L -173.66469 -638.114 L -111.45115 -633.46652" />
    <path d="M 695.14156 -539.82219 L 687.96308 -540.35844" />
    <path d="M 694.51118 -516.6279 L 687.96308 -540.35844" />
    <path d="M 657.28058 -542.65049 L 652.07065 -543.03968 L 657.51095 -547.47718" />
    <path d="M 648.7966 -554.90495 L 652.07065 -543.03968" />
    <path d="M 648.7966 -554.90495 L 670.33205 -553.29621 L 684.68902 -552.22371 L 691.86751 -551.68747" />
    <path d="M 695.14156 -539.82219 L 691.86751 -551.68747" />
    <path d="M -164.765 -615.67971 L -143.22955 -614.07097 L -647.22551 -202.97562" />
    <path d="M -164.765 -615.67971 L -161.49095 -603.81444 L -156.05065 -608.25194" />
    <path d="M -143.22955 -614.07097 L -128.87258 -612.99847 L -121.6941 -612.46222" />
    <path d="M -156.28102 -603.42525 L -161.49095 -603.81444" />
    <path d="M -118.42004 -600.59695 L -121.6941 -612.46222" />
    <path d="M -118.42004 -600.59695 L -125.59853 -601.1332" />
    <path d="M -119.05042 -577.40266 L -125.59853 -601.1332" />
    <path d="M 872.30521 68.25256 L 875.77514 56.67436" />
    <path d="M 434.55663 -304.59027 L 714.25888 -283.69593" />
    <path d="M 58.74361 7.4778 L 62.21353 -4.1004" />
    <path d="M -15.61835 -286.16552 L 59.1955 -15.03784" />
    <path d="M 60.27627 -11.12108 L 62.21353 -4.1004" />
    <path d="M 693.40337 -544.79594 L 687.96308 -540.35844" />
    <path d="M 693.77682 -544.76804 L 693.40337 -544.79594" />
    <path d="M 73.55247 -53.7368 L 152.14622 -117.84351 L 137.78925 -118.91601 L 59.1955 -54.8093 L 73.55247 -53.7368 L 73.55247 -10.12933 L 142.32406 -66.22438" />
    <path d="M 176.14693 -137.42022 L 684.68902 -552.22371" />
    <path d="M 703.51998 -567.5836 L 768.72307 -620.76793" />
    <path d="M 148.87217 -100.63714 L 142.32406 -66.22438" />
    <path d="M 154.31247 -105.07463 L 148.87217 -100.63714 L 156.05065 -100.10089" />
    <path d="M 167.8733 -87.06417 L 694.51118 -516.6279" />
    <path d="M 713.34214 -531.98778 L 768.72307 -577.16045 L 768.72307 -620.76793" />
    <path d="M 754.3661 -621.84042 L 694.78186 -573.23923" />
    <path d="M 670.33205 -553.29621 L 166.33609 -142.20087" />
    <path d="M 59.1955 -54.8093 L 59.1955 -11.20182 L 73.55247 -10.12933" />
    <path d="M 662.72088 -547.08799 L 657.51095 -547.47718" />
    <path d="M 655.60163 -554.3966 L 657.51095 -547.47718" />
    <path d="M -157.95997 -615.17136 L -156.05065 -608.25194" />
    <path d="M -637.41467 -198.19498 L -128.87258 -612.99847" />
    <path d="M -150.84072 -607.86274 L -156.05065 -608.25194" />
    <path d="M -59.1955 -682.61518 L -118.77975 -634.01398" />
    <path d="M -675.77235 -179.69077 L -754.3661 -115.58405 L -740.00913 -114.51156 L -661.41538 -178.61827 L -675.77235 -179.69077 L -697.30781 -181.29951" />
    <path d="M -754.3661 -115.58405 L -754.3661 -71.97658 L -740.00913 -70.90408 L -671.23754 -126.99913" />
    <path d="M -645.68831 -147.83893 L -119.05042 -577.40266" />
    <path d="M -120.15823 -605.5707 L -125.59853 -601.1332" />
    <path d="M -119.78478 -605.5428 L -120.15823 -605.5707" />
    <path d="M -110.04162 -628.35835 L -44.83853 -681.54268" />
    <path d="M -740.00913 -114.51156 L -740.00913 -70.90408" />
    <path d="M -664.68944 -161.41189 L -671.23754 -126.99913" />
    <path d="M -659.24914 -165.84939 L -664.68944 -161.41189 L -657.51095 -160.87564" />
    <path d="M -100.21946 -592.76254 L -44.83853 -637.93521 L -44.83853 -681.54268" />
    <path d="M 159.3247 -117.30727 L 152.14622 -117.84351" />
    <path d="M 754.3661 -621.84042 L 768.72307 -620.76793" />
    <path d="M -702.11045 -207.07564 L -713.11752 -149.22936" />
    <path d="M -725.81895 -82.47862 L -875.77514 705.59729 L -813.5616 710.24477 L -732.39461 283.68183 L 18.95346 339.8091 L -62.21353 766.37205 L 0 771.01953 L 173.66469 -141.6534 L 111.45115 -146.30089 L 100.44408 -88.4546" />
    <path d="M -639.89692 -202.42816 L -702.11045 -207.07564" />
    <path d="M -721.06391 224.13479 L -639.89692 -202.42816" />
    <path d="M 30.28416 280.26206 L -721.06391 224.13479" />
    <path d="M 87.74265 -21.70386 L 30.28416 280.26206" />
    <path d="M -654.2369 -178.08202 L -661.41538 -178.61827" />
    <path d="M -654.2369 -178.08202 L -657.51095 -160.87564" />
    <path d="M -700.58186 -164.09313 L -697.30781 -181.29951" />
    <path d="M -700.58186 -164.09313 L -695.37193 -163.70394" />
    <path d="M 137.78925 -118.91601 L 116.2538 -120.52475" />
    <path d="M 112.97974 -103.31837 L 116.2538 -120.52475" />
    <path d="M 112.97974 -103.31837 L 118.18967 -102.92918" />
    <path d="M 159.3247 -117.30727 L 156.05065 -100.10089" />
    <path d="M 154.31247 -105.07463 L 156.95944 -104.8769" />
    <path d="M -872.30521 711.51485 L -810.09168 716.16233 L -813.5616 710.24477" />
    <path d="M -716.5324 224.4733 L -636.42699 -196.5106 L -639.89692 -202.42816" />
    <path d="M -810.09168 716.16233 L -728.92468 289.59939 L -732.39461 283.68183" />
    <path d="M -728.92468 289.59939 L 17.89187 345.38815" />
    <path d="M -58.74361 772.28961 L 3.46992 776.93709 L 0 771.01953" />
    <path d="M 3.46992 776.93709 L 177.13461 -135.73585 L 173.66469 -141.6534" />
    <path d="M -695.14156 -168.53063 L -689.93163 -168.14144" />
    <path d="M -695.14156 -168.53063 L -692.77629 -180.961" />
    <path d="M -659.24914 -165.84939 L -656.60216 -165.65166" />
    <path d="M 118.42004 -107.75587 L 120.78531 -120.18624" />
    <path d="M 118.42004 -107.75587 L 123.62997 -107.36668" />
    <path d="M 118.42004 -107.75587 L 112.97974 -103.31837" />
    <path d="M -59.1955 -682.61518 L -44.83853 -681.54268" />
    <path d="M -695.14156 -168.53063 L -700.58186 -164.09313" />
    <path d="M -872.30521 711.51485 L -875.77514 705.59729" />
    <path d="M -58.74361 772.28961 L -62.21353 766.37205" />
</svg>