<svg version="1.1" xmlns="http://www.w3.org/2000/svg" viewBox="-877.3180087750496 -706.2756294588123 1754.6360175500995 1511.6478463514054" fill="none" stroke="black" stroke-width="0.6%" vector-effect="non-scaling-stroke">
    <path d="M 693.89425 -577.59466 L 872.87166 69.72585 L 810.61956 64.97951 L 726.75771 -238.32967 L 372.25966 -265.35793" />
    <path d="M 631.64215 -582.341 L 693.89425 -577.59466 L 697.3406 -589.23836 L 876.31801 58.08215" />
    <path d="M 715.50399 -279.03181 L 653.56409 -503.05434" />
    <path d="M 640.84252 -549.06536 L 631.64215 -582.341 L 635.0885 -593.98469 L 697.3406 -589.23836" />
    <path d="M -36.30982 -336.3529 L 353.89671 -306.6021" />
    <path d="M 415.51098 -301.90439 L 715.50399 -279.03181" />
    <path d="M 310.64539 -270.05563 L -25.0561 -295.65076 L 58.80575 7.65843 L -3.44635 2.9121 L -160.50182 -565.12175" />
    <path d="M -120.17166 -639.66208 L -36.30982 -336.3529 L -32.86346 -347.99659 L 366.82132 -317.52313" />
    <path d="M -182.42376 -644.40842 L -120.17166 -639.66208 L -116.72531 -651.30578 L -32.86346 -347.99659" />
    <path d="M -173.22339 -611.13278 L -182.42376 -644.40842 L -178.97741 -656.05211 L -116.72531 -651.30578" />
    <path d="M 690.34255 -556.53184 L 683.15961 -557.07949" />
    <path d="M 689.66324 -533.55737 L 683.15961 -557.07949" />
    <path d="M 653.04428 -559.3756 L 647.24494 -559.81776 L 652.64828 -564.38347" />
    <path d="M 643.99313 -571.57882 L 647.24494 -559.81776" />
    <path d="M 643.99313 -571.57882 L 665.54193 -569.93586 L 170.76364 -151.85845" />
    <path d="M 665.54193 -569.93586 L 679.9078 -568.84055 L 687.09074 -568.2929" />
    <path d="M 690.34255 -556.53184 L 687.09074 -568.2929" />
    <path d="M -170.07278 -633.64624 L -148.52397 -632.00328 L -643.30227 -213.92587" />
    <path d="M -170.07278 -633.64624 L -166.82097 -621.88518 L -161.41763 -626.45089" />
    <path d="M -148.52397 -632.00328 L -134.15811 -630.90797 L -126.97517 -630.36032" />
    <path d="M -161.02163 -621.44301 L -166.82097 -621.88518" />
    <path d="M -123.72336 -618.59926 L -126.97517 -630.36032" />
    <path d="M -123.72336 -618.59926 L -130.90629 -619.14691" />
    <path d="M -124.40267 -595.62479 L -130.90629 -619.14691" />
    <path d="M 872.87166 69.72585 L 876.31801 58.08215" />
    <path d="M 428.4356 -312.82543 L 712.14109 -291.19467" />
    <path d="M 58.80575 7.65843 L 62.2521 -3.98527" />
    <path d="M -18.24684 -295.1316 L 62.2521 -3.98527" />
    <path d="M 688.56295 -561.6452 L 683.15961 -557.07949" />
    <path d="M 688.93663 -561.61671 L 688.56295 -561.6452" />
    <path d="M 76.17488 -58.69873 L 157.4865 -127.40538 L 143.12063 -128.50068 L 121.57183 -130.14364" />
    <path d="M 181.21435 -147.45491 L 679.9078 -568.84055" />
    <path d="M 698.61083 -584.64422 L 766.62277 -642.1129" />
    <path d="M 76.17488 -58.69873 L 76.17488 -15.17241 L 147.73107 -75.63592" />
    <path d="M 154.23469 -110.14889 L 147.73107 -75.63592" />
    <path d="M 159.63803 -114.7146 L 154.23469 -110.14889 L 161.41763 -109.60124" />
    <path d="M 173.35508 -97.28768 L 689.66324 -533.55737" />
    <path d="M 708.36626 -549.36104 L 766.62277 -598.58658 L 766.62277 -642.1129" />
    <path d="M 752.2569 -643.20821 L 689.12683 -589.86461" />
    <path d="M 143.12063 -128.50068 L 61.80901 -59.79404 L 76.17488 -58.69873" />
    <path d="M 61.80901 -59.79404 L 61.80901 -16.26772 L 76.17488 -15.17241" />
    <path d="M 658.44762 -563.94131 L 652.64828 -564.38347" />
    <path d="M 650.80239 -571.05966 L 652.64828 -564.38347" />
    <path d="M -163.26352 -633.12708 L -161.41763 -626.45089" />
    <path d="M -632.85156 -209.52233 L -134.15811 -630.90797" />
    <path d="M -155.61829 -626.00873 L -161.41763 -626.45089" />
    <path d="M -61.80901 -705.27563 L -124.93908 -651.93203" />
    <path d="M -670.94527 -190.5681 L -752.2569 -121.86146 L -737.89103 -120.76615 L -656.57941 -189.47279 L -670.94527 -190.5681 L -692.49408 -192.21106" />
    <path d="M -752.2569 -121.86146 L -752.2569 -78.33514 L -737.89103 -77.23983 L -666.33484 -137.70333" />
    <path d="M -640.71082 -159.35509 L -124.40267 -595.62479" />
    <path d="M -125.50295 -623.71262 L -130.90629 -619.14691" />
    <path d="M -125.12927 -623.68413 L -125.50295 -623.71262" />
    <path d="M -115.45508 -646.71164 L -47.44314 -704.18032" />
    <path d="M -737.89103 -120.76615 L -737.89103 -77.23983" />
    <path d="M -659.83122 -172.21631 L -666.33484 -137.70333" />
    <path d="M -654.42788 -176.78202 L -659.83122 -172.21631 L -652.64828 -171.66865" />
    <path d="M -105.69964 -611.42846 L -47.44314 -660.654 L -47.44314 -704.18032" />
    <path d="M 164.66944 -126.85772 L 157.4865 -127.40538" />
    <path d="M 752.2569 -643.20821 L 766.62277 -642.1129" />
    <path d="M -697.3406 -218.04595 L -708.49796 -158.83686" />
    <path d="M -721.21953 -91.32691 L -876.31801 731.73896 L -814.06591 736.48529 L -730.20406 291.45306 L 21.60975 348.77415 L -62.2521 793.80638 L 0 798.55271 L 178.97741 -151.2322 L 116.72531 -155.97853 L 105.56795 -96.76945" />
    <path d="M -635.0885 -213.29962 L -697.3406 -218.04595" />
    <path d="M -718.95035 231.73261 L -635.0885 -213.29962" />
    <path d="M 32.86346 289.0537 L -718.95035 231.73261" />
    <path d="M 92.84638 -29.25949 L 32.86346 289.0537" />
    <path d="M -649.39647 -188.92514 L -656.57941 -189.47279" />
    <path d="M -649.39647 -188.92514 L -652.64828 -171.66865" />
    <path d="M -695.74589 -174.95458 L -692.49408 -192.21106" />
    <path d="M -695.74589 -174.95458 L -689.94656 -174.51241" />
    <path d="M 118.32002 -112.88716 L 121.57183 -130.14364" />
    <path d="M 118.32002 -112.88716 L 124.11935 -112.44499" />
    <path d="M 164.66944 -126.85772 L 161.41763 -109.60124" />
    <path d="M 159.63803 -114.7146 L 162.34233 -114.50841" />
    <path d="M -872.87166 737.55847 L -810.61956 742.3048 L -814.06591 736.48529" />
    <path d="M -714.47171 232.07408 L -631.64215 -207.48012 L -635.0885 -213.29962" />
    <path d="M -810.61956 742.3048 L -726.75771 297.27257 L -730.20406 291.45306" />
    <path d="M -726.75771 297.27257 L 20.57747 354.25219" />
    <path d="M -58.80575 799.62588 L 3.44635 804.37222 L 0 798.55271" />
    <path d="M 3.44635 804.37222 L 182.42376 -145.4127 L 178.97741 -151.2322" />
    <path d="M -690.34255 -179.52029 L -684.54322 -179.07812" />
    <path d="M -690.34255 -179.52029 L -688.01545 -191.8696" />
    <path d="M -654.42788 -176.78202 L -651.72357 -176.57583" />
    <path d="M 123.72336 -117.45287 L 126.05046 -129.80218" />
    <path d="M 123.72336 -117.45287 L 129.52269 -117.01071" />
    <path d="M 123.72336 -117.45287 L 118.32002 -112.88716" />
    <path d="M -61.80901 -705.27563 L -47.44314 -704.18032" />
    <path d="M -690.34255 -179.52029 L -695.74589 -174.95458" />
    <path d="M -872.87166 737.55847 L -876.31801 731.73896" />
    <path d="M -58.80575 799.62588 L -62.2521 793.80638" />
</svg>