<svg version="1.1" xmlns="http://www.w3.org/2000/svg" viewBox="-891.2106596018953 -723.8103355474475 1782.421319203791 1528.0488959942695" fill="none" stroke="black" stroke-width="0.6%" vector-effect="non-scaling-stroke">
    <path d="M 707.73705 -553.14823 L 886.64397 73.15148 L 824.59175 68.25418 L 737.80164 -235.57208 L 362.03092 -265.22877" />
    <path d="M 726.15497 -276.34361 L 660.21583 -507.17687" />
    <path d="M 406.79248 -301.54842 L 726.15497 -276.34361" />
    <path d="M 65.54543 -24.65957 L 74.56872 6.9283" />
    <path d="M 74.15885 9.0283 L 13.13968 4.21253 L -6.64402 -65.04428" />
    <path d="M 690.5175 -531.76374 L 688.7985 -537.78144" />
    <path d="M 696.96155 -577.50936 L 698.1118 -578.44267 L 702.28839 -578.11304 L 704.98377 -586.89999 L 706.51432 -581.54198" />
    <path d="M 96.18013 -56.92916 L 810.73689 -636.7226 L 810.73689 -651.23437 L -96.18013 -722.81033 L -810.73689 -143.0169 L 96.18013 -71.44093 L 810.73689 -651.23437" />
    <path d="M 55.60753 -60.13124 L 96.18013 -56.92916 L 96.18013 -71.44093" />
    <path d="M 640.23617 -583.01034 L 644.41276 -582.68072 L 643.26252 -581.74741 L 696.96155 -577.50936" />
    <path d="M 644.41276 -582.68072 L 644.10605 -581.68083" />
    <path d="M 642.93155 -591.79729 L 704.98377 -586.89999" />
    <path d="M 640.23617 -583.01034 L 642.93155 -591.79729" />
    <path d="M 886.64397 73.15148 L 890.21066 61.52406" />
    <path d="M 713.32906 -557.68561 L 890.21066 61.52406" />
    <path d="M -755.84454 -124.1729 L 41.28779 -61.26139 L 41.28779 -17.72608 L 55.60753 -16.59593 L 129.6623 -76.68419" />
    <path d="M 420.1684 -312.40168 L 722.67464 -288.5272" />
    <path d="M 71.13744 -29.19694 L 77.36473 -7.39706" />
    <path d="M -810.73689 -128.50512 L -770.16429 -125.30304 L -770.16429 -81.76773 L -755.84454 -80.63758 L -706.94633 -120.31374" />
    <path d="M -755.84454 -124.1729 L -755.84454 -80.63758" />
    <path d="M 55.60753 -60.13124 L 55.60753 -16.59593" />
    <path d="M 131.3813 -85.49149 L 129.6623 -76.68419" />
    <path d="M 164.04824 -104.58504 L 690.5175 -531.76374" />
    <path d="M 715.04806 -551.6679 L 770.16429 -596.38937 L 770.16429 -603.80187" />
    <path d="M -644.46211 -207.81199 L -706.51432 -212.70929" />
    <path d="M -644.46211 -207.81199 L -640.23617 -211.24092 L -642.93155 -215.6538 L -704.98377 -220.5511 L -706.51432 -212.70929" />
    <path d="M 166.98997 -143.77034 L 104.93775 -148.66764" />
    <path d="M 166.98997 -143.77034 L 171.2159 -147.19927 L 168.52052 -151.61214 L 106.46831 -156.50945 L 104.93775 -148.66764" />
    <path d="M -109.16369 -642.15469 L -104.93775 -645.58363" />
    <path d="M -171.2159 -647.05199 L -109.16369 -642.15469 L -106.46831 -650.94164 L -104.93775 -645.58363" />
    <path d="M 702.28839 -578.11304 L 706.51432 -581.54198" />
    <path d="M 705.65198 -584.56079 L 706.34011 -585.11914 L 705.47293 -585.18758" />
    <path d="M -810.73689 -128.50512 L -810.73689 -143.0169" />
    <path d="M -13.13968 803.23856 L 165.76724 -113.39234" />
    <path d="M -16.70637 797.39918 L 160.17523 -108.85497" />
    <path d="M -13.13968 803.23856 L -16.70637 797.39918" />
    <path d="M -725.08664 229.38177 L -657.59372 -116.41872" />
    <path d="M -75.19189 798.34126 L -13.13968 803.23856" />
    <path d="M -737.80164 294.52715 L 6.9632 353.30569" />
    <path d="M -824.59175 739.19691 L -737.80164 294.52715 L -741.36833 288.68777 L 8.03152 347.83212 L -78.75858 792.50188 L -16.70637 797.39918" />
    <path d="M -886.64397 734.29961 L -824.59175 739.19691 L -828.15844 733.35753 L -741.36833 288.68777" />
    <path d="M -729.72166 229.01596 L -662.22874 -116.78452" />
    <path d="M 19.6782 288.16031 L -729.72166 229.01596" />
    <path d="M 83.59202 -39.30263 L 19.6782 288.16031" />
    <path d="M -890.21066 728.46023 L -828.15844 733.35753" />
    <path d="M -727.86005 -103.34428 L -890.21066 728.46023" />
    <path d="M -886.64397 734.29961 L -890.21066 728.46023" />
    <path d="M -644.46211 -207.81199 L -642.93155 -215.6538" />
    <path d="M 166.98997 -143.77034 L 168.52052 -151.61214" />
    <path d="M -168.52052 -655.83894 L -106.46831 -650.94164" />
    <path d="M -171.2159 -647.05199 L -168.52052 -655.83894" />
    <path d="M -75.19189 798.34126 L -78.75858 792.50188" />
</svg>