<svg version="1.1" xmlns="http://www.w3.org/2000/svg" viewBox="-877.3180087750496 -706.8232831509351 1754.6360175500995 1512.1955000435282" fill="none" stroke="black" stroke-width="0.6%" vector-effect="non-scaling-stroke">
    <path d="M 693.89425 -577.59466 L 872.87166 69.72585 L 810.61956 64.97951 L 726.75771 -238.32967 L 365.07673 -265.90558" />
    <path d="M 631.64215 -582.341 L 693.89425 -577.59466 L 697.3406 -589.23836 L 876.31801 58.08215" />
    <path d="M 715.50399 -279.03181 L 652.08102 -508.41826" />
    <path d="M 639.35945 -554.42928 L 631.64215 -582.341 L 635.0885 -593.98469 L 697.3406 -589.23836" />
    <path d="M -36.30982 -336.3529 L 346.71377 -307.14975" />
    <path d="M 408.32805 -302.45205 L 715.50399 -279.03181" />
    <path d="M 303.46245 -270.60328 L -25.0561 -295.65076 L 58.80575 7.65843 L -3.44635 2.9121 L -161.98489 -570.48568" />
    <path d="M -120.17166 -639.66208 L -36.30982 -336.3529 L -32.86346 -347.99659 L 359.63839 -318.07079" />
    <path d="M -182.42376 -644.40842 L -120.17166 -639.66208 L -116.72531 -651.30578 L -32.86346 -347.99659" />
    <path d="M -174.70646 -616.4967 L -182.42376 -644.40842 L -178.97741 -656.05211 L -116.72531 -651.30578" />
    <path d="M 690.34255 -556.53184 L 675.97668 -557.62714" />
    <path d="M 682.4803 -534.10502 L 675.97668 -557.62714" />
    <path d="M 643.99313 -571.57882 L 646.95927 -560.85098" />
    <path d="M 643.99313 -571.57882 L 658.359 -570.48351 L 672.72487 -569.3882 L 687.09074 -568.2929" />
    <path d="M 690.34255 -556.53184 L 687.09074 -568.2929" />
    <path d="M -170.07278 -633.64624 L -155.70691 -632.55093 L -650.4852 -214.47352" />
    <path d="M -170.07278 -633.64624 L -167.10664 -622.91839" />
    <path d="M -155.70691 -632.55093 L -141.34104 -631.45562 L -126.97517 -630.36032" />
    <path d="M -123.72336 -618.59926 L -126.97517 -630.36032" />
    <path d="M -123.72336 -618.59926 L -138.08923 -619.69456" />
    <path d="M -131.58561 -596.17244 L -138.08923 -619.69456" />
    <path d="M 872.87166 69.72585 L 876.31801 58.08215" />
    <path d="M 421.25267 -313.37308 L 712.14109 -291.19467" />
    <path d="M 58.80575 7.65843 L 62.2521 -3.98527" />
    <path d="M -18.24684 -295.1316 L 54.62607 -31.56687" />
    <path d="M 58.79254 -16.49771 L 62.2521 -3.98527" />
    <path d="M 681.38002 -562.19285 L 675.97668 -557.62714" />
    <path d="M 688.93663 -561.61671 L 681.38002 -562.19285" />
    <path d="M 68.99194 -59.24639 L 150.30357 -127.95303 L 135.9377 -129.04834 L 121.57183 -130.14364" />
    <path d="M 177.94657 -151.3108 L 672.72487 -569.3882" />
    <path d="M 696.30976 -589.31695 L 759.43984 -642.66056" />
    <path d="M 68.99194 -59.24639 L 68.99194 -15.72007 L 140.54813 -76.18357" />
    <path d="M 147.05176 -110.69654 L 140.54813 -76.18357" />
    <path d="M 152.4551 -115.26225 L 147.05176 -110.69654 L 161.41763 -109.60124" />
    <path d="M 174.83815 -105.15792 L 682.4803 -534.10502" />
    <path d="M 706.8832 -554.72496 L 759.43984 -599.13423 L 759.43984 -642.66056" />
    <path d="M 745.07397 -643.75586 L 681.9439 -590.41226" />
    <path d="M 658.359 -570.48351 L 163.58071 -152.4061" />
    <path d="M 135.9377 -129.04834 L 54.62607 -60.3417 L 68.99194 -59.24639" />
    <path d="M 54.62607 -60.3417 L 54.62607 -16.81537 L 68.99194 -15.72007" />
    <path d="M 650.80239 -571.05966 L 652.36261 -565.41669" />
    <path d="M -163.26352 -633.12708 L -161.7033 -627.4841" />
    <path d="M -636.11933 -213.37822 L -141.34104 -631.45562" />
    <path d="M -68.99194 -705.82328 L -132.12201 -652.47968" />
    <path d="M -678.12821 -191.11576 L -759.43984 -122.40911 L -745.07397 -121.31381 L -663.76234 -190.02045 L -678.12821 -191.11576 L -692.49408 -192.21106" />
    <path d="M -759.43984 -122.40911 L -759.43984 -78.88279 L -745.07397 -77.78749 L -673.51777 -138.25099" />
    <path d="M -639.22776 -167.22534 L -131.58561 -596.17244" />
    <path d="M -132.68589 -624.26027 L -138.08923 -619.69456" />
    <path d="M -125.12927 -623.68413 L -132.68589 -624.26027" />
    <path d="M -117.75614 -651.38437 L -54.62607 -704.72797" />
    <path d="M -745.07397 -121.31381 L -745.07397 -77.78749" />
    <path d="M -667.01415 -172.76396 L -673.51777 -138.25099" />
    <path d="M -661.61081 -177.32967 L -667.01415 -172.76396 L -652.64828 -171.66865" />
    <path d="M -107.18271 -616.79238 L -54.62607 -661.20165 L -54.62607 -704.72797" />
    <path d="M 164.66944 -126.85772 L 150.30357 -127.95303" />
    <path d="M 745.07397 -643.75586 L 759.43984 -642.66056" />
    <path d="M -697.3406 -218.04595 L -707.01489 -166.70711" />
    <path d="M -719.73646 -99.19716 L -876.31801 731.73896 L -814.06591 736.48529 L -730.20406 291.45306 L 21.60975 348.77415 L -62.2521 793.80638 L 0 798.55271 L 178.97741 -151.2322 L 116.72531 -155.97853 L 107.05102 -104.63969" />
    <path d="M -635.0885 -213.29962 L -697.3406 -218.04595" />
    <path d="M -718.95035 231.73261 L -635.0885 -213.29962" />
    <path d="M 32.86346 289.0537 L -718.95035 231.73261" />
    <path d="M 94.32945 -37.12974 L 32.86346 289.0537" />
    <path d="M -649.39647 -188.92514 L -663.76234 -190.02045" />
    <path d="M -649.39647 -188.92514 L -652.64828 -171.66865" />
    <path d="M -695.46022 -176.47057 L -692.49408 -192.21106" />
    <path d="M 118.60569 -114.40315 L 121.57183 -130.14364" />
    <path d="M 164.66944 -126.85772 L 161.41763 -109.60124" />
    <path d="M 152.4551 -115.26225 L 162.34233 -114.50841" />
    <path d="M -872.87166 737.55847 L -810.61956 742.3048 L -814.06591 736.48529" />
    <path d="M -714.47171 232.07408 L -631.64215 -207.48012 L -635.0885 -213.29962" />
    <path d="M -810.61956 742.3048 L -726.75771 297.27257 L -730.20406 291.45306" />
    <path d="M -726.75771 297.27257 L 20.57747 354.25219" />
    <path d="M -58.80575 799.62588 L 3.44635 804.37222 L 0 798.55271" />
    <path d="M 3.44635 804.37222 L 182.42376 -145.4127 L 178.97741 -151.2322" />
    <path d="M -690.05688 -181.03628 L -688.01545 -191.8696" />
    <path d="M -661.61081 -177.32967 L -651.72357 -176.57583" />
    <path d="M 124.00903 -118.96886 L 126.05046 -129.80218" />
    <path d="M -68.99194 -705.82328 L -54.62607 -704.72797" />
    <path d="M -872.87166 737.55847 L -876.31801 731.73896" />
    <path d="M -58.80575 799.62588 L -62.2521 793.80638" />
</svg>