<svg version="1.1" xmlns="http://www.w3.org/2000/svg" viewBox="-867.976603799235 -751.7882350440692 1719.3716878746031 1524.3486272616492" fill="none" stroke="black" stroke-width="0.6%" vector-effect="non-scaling-stroke">
    <path d="M -863.14663 692.38167 L -801.55812 698.00639 L -711.96892 268.15716 L 26.9232 335.63826" />
    <path d="M -698.38501 202.98153 L -609.87331 -221.69787 L -613.70329 -227.31589 L -675.29179 -232.9406 L -687.441 -174.64867" />
    <path d="M -57.75852 765.93567 L 3.82998 771.56039 L 195.51479 -148.14386 L 191.68481 -153.76188 L 130.09631 -159.3866 L 117.9471 -101.09466" />
    <path d="M -668.6891 -194.29893 L -663.53151 -193.8279" />
    <path d="M -668.6891 -194.29893 L -666.17265 -206.37287" />
    <path d="M -633.15727 -191.0539 L -630.95838 -190.85308" />
    <path d="M 136.699 -120.74493 L 139.21545 -132.81886" />
    <path d="M 136.699 -120.74493 L 141.85659 -120.2739" />
    <path d="M 172.23083 -117.4999 L 174.42972 -117.29908" />
    <path d="M -863.14663 692.38167 L -866.9766 686.76365 L -805.3881 692.38837 L -715.7989 262.53914 L 28.0007 330.46843 L -61.5885 760.31765 L 0 765.94237 L 191.68481 -153.76188" />
    <path d="M -701.46037 -107.38367 L -866.9766 686.76365" />
    <path d="M -801.55812 698.00639 L -805.3881 692.38837" />
    <path d="M -703.29249 202.53334 L -613.70329 -227.31589" />
    <path d="M -711.96892 268.15716 L -715.7989 262.53914" />
    <path d="M 40.50711 270.46263 L -703.29249 202.53334" />
    <path d="M 103.92773 -33.82967 L 40.50711 270.46263" />
    <path d="M -57.75852 765.93567 L -61.5885 760.31765" />
    <path d="M 3.82998 771.56039 L 0 765.94237" />
    <path d="M -674.6939 -189.48212 L -669.53632 -189.01109" />
    <path d="M -668.6891 -194.29893 L -674.6939 -189.48212 L -671.08012 -206.82105" />
    <path d="M 30.79425 -750.78823 L -620.95826 -227.97846" />
    <path d="M -649.76102 -204.87404 L -736.50997 -135.28751 L -722.29724 -133.98949 L -635.54829 -203.57602 L -649.76102 -204.87404 L -671.08012 -206.82105" />
    <path d="M -736.50997 -135.28751 L -736.50997 -91.96719 L -722.29724 -90.66917 L -646.38964 -151.55921" />
    <path d="M -620.09562 -172.65122 L 45.00698 -706.1699 L 45.00698 -749.49022" />
    <path d="M -610.96348 -223.29698 L 45.00698 -749.49022" />
    <path d="M 30.79425 -750.78823 L 45.00698 -749.49022" />
    <path d="M -722.29724 -133.98949 L -722.29724 -90.66917" />
    <path d="M -639.16207 -186.23709 L -646.38964 -151.55921" />
    <path d="M -633.15727 -191.0539 L -639.16207 -186.23709 L -632.05571 -185.58808" />
    <path d="M -628.44193 -202.92702 L -635.54829 -203.57602" />
    <path d="M -628.44193 -202.92702 L -632.05571 -185.58808" />
    <path d="M 176.94617 -129.37302 L 169.83981 -130.02202 L 155.62708 -131.32003 L 134.30798 -133.26705" />
    <path d="M 836.18235 -677.23423 L 184.42985 -154.42446" />
    <path d="M 194.42463 -149.74298 L 850.39508 -675.93622" />
    <path d="M 836.18235 -677.23423 L 850.39508 -675.93622" />
    <path d="M 136.699 -120.74493 L 130.6942 -115.92811 L 135.85178 -115.45708" />
    <path d="M 130.6942 -115.92811 L 134.30798 -133.26705" />
    <path d="M 155.62708 -131.32003 L 68.87813 -61.7335 L 83.09086 -60.43549 L 169.83981 -130.02202" />
    <path d="M 68.87813 -61.7335 L 68.87813 -18.41318 L 83.09086 -17.11517 L 158.99846 -78.00521" />
    <path d="M 185.29249 -99.09722 L 850.39508 -632.6159 L 850.39508 -675.93622" />
    <path d="M 83.09086 -60.43549 L 83.09086 -17.11517" />
    <path d="M 166.22603 -112.68308 L 158.99846 -78.00521" />
    <path d="M 172.23083 -117.4999 L 166.22603 -112.68308 L 173.33239 -112.03408" />
    <path d="M 176.94617 -129.37302 L 173.33239 -112.03408" />
</svg>