<svg version="1.1" xmlns="http://www.w3.org/2000/svg" viewBox="-876.7751373137448 -696.6974224406488 1753.5502746274901 1474.6345121430147" fill="none" stroke="black" stroke-width="0.6%" vector-effect="non-scaling-stroke">
    <path d="M -693.23975 -178.52534 L -692.77629 -180.961" />
    <path d="M -659.24914 -165.84939 L -656.60216 -165.65166" />
    <path d="M -716.5324 224.4733 L -636.42699 -196.5106 L -639.89692 -202.42816 L -702.11045 -207.07564 L -710.17087 -164.7151" />
    <path d="M 120.32185 -117.75058 L 120.78531 -120.18624" />
    <path d="M 154.31247 -105.07463 L 156.95944 -104.8769" />
    <path d="M 3.46992 776.93709 L 177.13461 -135.73585 L 173.66469 -141.6534 L 111.45115 -146.30089 L 103.39073 -103.94034" />
    <path d="M -58.74361 772.28961 L 3.46992 776.93709 L 0 771.01953 L 173.66469 -141.6534" />
    <path d="M -728.92468 289.59939 L 17.89187 345.38815" />
    <path d="M -810.09168 716.16233 L -728.92468 289.59939 L -732.39461 283.68183 L 18.95346 339.8091 L -62.21353 766.37205 L 0 771.01953" />
    <path d="M -872.30521 711.51485 L -810.09168 716.16233 L -813.5616 710.24477 L -732.39461 283.68183" />
    <path d="M -145.76658 -625.08382 L -661.91849 -204.07322" />
    <path d="M -59.1955 -695.69742 L -133.47272 -635.11158" />
    <path d="M -754.3661 -128.66629 L -754.3661 -85.05882 L -740.00913 -83.98632 L -668.29089 -142.48487" />
    <path d="M -672.8257 -195.17651 L -754.3661 -128.66629 L -740.00913 -127.5938 L -740.00913 -83.98632" />
    <path d="M -690.46533 -180.78836 L -697.30781 -181.29951" />
    <path d="M -698.68005 -174.08784 L -697.30781 -181.29951" />
    <path d="M -642.74166 -163.32467 L -121.99707 -588.0814 L -125.59853 -601.1332" />
    <path d="M -658.46873 -194.10401 L -661.41538 -178.61827" />
    <path d="M -131.40961 -624.01133 L -647.56152 -203.00072" />
    <path d="M -131.67087 -623.13957 L -131.40961 -624.01133" />
    <path d="M -128.87258 -612.99847 L -131.67087 -623.13957" />
    <path d="M -44.83853 -694.62493 L -119.11575 -634.03908" />
    <path d="M -44.83853 -651.01745 L -44.83853 -694.62493" />
    <path d="M -103.16611 -603.44128 L -44.83853 -651.01745" />
    <path d="M -120.15823 -605.5707 L -125.59853 -601.1332" />
    <path d="M -659.24914 -165.84939 L -664.68944 -161.41189 L -657.51095 -160.87564" />
    <path d="M -664.68944 -161.41189 L -668.29089 -142.48487" />
    <path d="M -658.46873 -194.10401 L -740.00913 -127.5938" />
    <path d="M -654.2369 -178.08202 L -657.51095 -160.87564" />
    <path d="M -654.2369 -178.08202 L -661.41538 -178.61827" />
    <path d="M -721.06391 224.13479 L -639.89692 -202.42816" />
    <path d="M 30.28416 280.26206 L -721.06391 224.13479" />
    <path d="M 90.6893 -37.1896 L 30.28416 280.26206" />
    <path d="M 667.79502 -564.30907 L 151.64312 -143.29846" />
    <path d="M 754.3661 -634.92267 L 680.08888 -574.33682" />
    <path d="M 59.1955 -67.89154 L 59.1955 -24.28406 L 73.55247 -23.21157 L 145.27071 -81.71012" />
    <path d="M 140.7359 -134.40175 L 59.1955 -67.89154 L 73.55247 -66.81904 L 73.55247 -23.21157" />
    <path d="M 123.09628 -120.01361 L 116.2538 -120.52475" />
    <path d="M 114.88155 -113.31308 L 116.2538 -120.52475" />
    <path d="M 170.81994 -102.54991 L 691.56453 -527.30664 L 687.96308 -540.35844" />
    <path d="M 155.09287 -133.32926 L 152.14622 -117.84351" />
    <path d="M 682.15199 -563.23657 L 166.00009 -142.22597" />
    <path d="M 681.89073 -562.36481 L 682.15199 -563.23657" />
    <path d="M 684.68902 -552.22371 L 681.89073 -562.36481" />
    <path d="M 768.72307 -633.85017 L 694.44585 -573.26433" />
    <path d="M 768.72307 -590.24269 L 768.72307 -633.85017" />
    <path d="M 710.39549 -542.66653 L 768.72307 -590.24269" />
    <path d="M 693.40337 -544.79594 L 687.96308 -540.35844" />
    <path d="M 154.31247 -105.07463 L 148.87217 -100.63714 L 156.05065 -100.10089" />
    <path d="M 148.87217 -100.63714 L 145.27071 -81.71012" />
    <path d="M 155.09287 -133.32926 L 73.55247 -66.81904" />
    <path d="M 159.3247 -117.30727 L 156.05065 -100.10089" />
    <path d="M 159.3247 -117.30727 L 152.14622 -117.84351" />
    <path d="M -58.74361 772.28961 L -62.21353 766.37205" />
    <path d="M -872.30521 711.51485 L -875.77514 705.59729 L -813.5616 710.24477" />
    <path d="M -722.8723 -97.96436 L -875.77514 705.59729" />
    <path d="M -145.76658 -625.08382 L -131.40961 -624.01133" />
    <path d="M -658.46873 -194.10401 L -672.8257 -195.17651" />
    <path d="M 155.09287 -133.32926 L 140.7359 -134.40175" />
    <path d="M -146.76759 -624.26733 L -177.13461 -626.53581 L -173.66469 -638.114 L -111.45115 -633.46652 L -30.28416 -339.31485 L 356.5301 -310.41902" />
    <path d="M -114.92108 -621.88832 L -131.67087 -623.13957" />
    <path d="M -114.92108 -621.88832 L -111.45115 -633.46652" />
    <path d="M -114.92108 -621.88832 L -33.75408 -327.73665 L -30.28416 -339.31485" />
    <path d="M -128.87258 -612.99847 L -121.6941 -612.46222" />
    <path d="M -118.42004 -600.59695 L -121.6941 -612.46222" />
    <path d="M -118.42004 -600.59695 L -125.59853 -601.1332" />
    <path d="M -164.765 -615.67971 L -163.39276 -610.70665" />
    <path d="M -164.765 -615.67971 L -157.92252 -615.16856" />
    <path d="M -3.46992 2.83032 L -158.34314 -558.43493" />
    <path d="M -171.04456 -604.46528 L -177.13461 -626.53581" />
    <path d="M 58.74361 7.4778 L -3.46992 2.83032" />
    <path d="M -22.42339 -286.67387 L 58.74361 7.4778 L 62.21353 -4.1004" />
    <path d="M 728.92468 -230.5466 L 361.40084 -258.0014" />
    <path d="M 298.06729 -262.73255 L -22.42339 -286.67387" />
    <path d="M 810.09168 63.60508 L 728.92468 -230.5466" />
    <path d="M 872.30521 68.25256 L 810.09168 63.60508" />
    <path d="M 698.64053 -561.11357 L 872.30521 68.25256 L 875.77514 56.67436" />
    <path d="M 698.64053 -561.11357 L 681.89073 -562.36481" />
    <path d="M 684.68902 -552.22371 L 691.86751 -551.68747" />
    <path d="M 695.14156 -539.82219 L 691.86751 -551.68747" />
    <path d="M 695.14156 -539.82219 L 687.96308 -540.35844" />
    <path d="M 648.7966 -554.90495 L 650.16884 -549.93189" />
    <path d="M 648.7966 -554.90495 L 655.63908 -554.39381" />
    <path d="M 666.79401 -563.49257 L 636.42699 -565.76105 L 639.89692 -577.33925 L 702.11045 -572.69177 L 875.77514 56.67436" />
    <path d="M 717.59399 -271.60938 L 655.21846 -497.66018" />
    <path d="M 642.51704 -543.69053 L 636.42699 -565.76105" />
    <path d="M -33.75408 -327.73665 L 343.23523 -299.57476" />
    <path d="M 406.56878 -294.84361 L 717.59399 -271.60938" />
    <path d="M 419.86365 -305.68787 L 714.25888 -283.69593" />
    <path d="M -15.61835 -286.16552 L 62.21353 -4.1004" />
    <path d="M 693.77682 -544.76804 L 693.40337 -544.79594" />
    <path d="M 655.60163 -554.3966 L 655.60914 -554.36939" />
    <path d="M -157.95997 -615.17136 L -157.95246 -615.14415" />
    <path d="M -119.78478 -605.5428 L -120.15823 -605.5707" />
    <path d="M -59.1955 -695.69742 L -44.83853 -694.62493" />
    <path d="M 667.79502 -564.30907 L 682.15199 -563.23657" />
    <path d="M 698.64053 -561.11357 L 702.11045 -572.69177" />
    <path d="M 754.3661 -634.92267 L 768.72307 -633.85017" />
</svg>