<svg version="1.1" xmlns="http://www.w3.org/2000/svg" viewBox="-509.4354476406009 -646.6341253395822 1018.8708952812019 1293.2682506791643" fill="none" stroke="black" stroke-width="0.6%" vector-effect="non-scaling-stroke">
    <path d="M -462.35724 228.53027 L -231.49979 -159.99146" />
    <path d="M 9.95984 645.63412 L 508.43545 -193.27579 L 472.31708 -225.17197 L 462.35724 -228.53027 L 229.38088 163.55749 L -206.81784 -221.65019 L 26.15852 -613.73795 L -9.95984 -645.63412 L -508.43545 193.27579 L -472.31708 225.17197 L -239.34072 -166.91579 L 196.858 218.29189 L -36.11837 610.37964 L 0 642.27582 L 498.47561 -196.63409 L 462.35724 -228.53027" />
    <path d="M 231.49979 159.99146 L -196.858 -218.29189 L 36.11837 -610.37964 L 0 -642.27582 L -9.95984 -645.63412" />
    <path d="M -11.87299 -608.03545 L -10.24991 -610.76701" />
    <path d="M 5.2911 -592.87782 L -11.87299 -608.03545 L -27.48847 -601.8756 L -18.09084 -617.69135 L 6.91418 -595.60938 L -2.48344 -579.79363 L -27.48847 -601.8756" />
    <path d="M 477.60819 -175.77396 L 460.44409 -190.9316 L 462.06717 -193.66316" />
    <path d="M 36.11837 -610.37964 L 26.15852 -613.73795" />
    <path d="M -206.81784 -221.65019 L -196.858 -218.29189" />
    <path d="M -462.35724 228.53027 L -472.31708 225.17197" />
    <path d="M 508.43545 -193.27579 L 498.47561 -196.63409" />
    <path d="M 9.95984 645.63412 L 0 642.27582" />
    <path d="M 460.44409 -190.9316 L 444.82862 -184.77175 L 454.22624 -200.58749 L 479.23127 -178.50552 L 469.83364 -162.68978 L 444.82862 -184.77175" />
</svg>